# AST/ASF file generated using VICON BodyLanguage
# -----------------------------------------------
:version 1.10
:name VICON
:units
  mass 1.0
  length 0.45
  angle deg
:documentation
   .ast/.asf automatically generated from VICON data using
   VICON BodyBuilder and BodyLanguage model FoxedUp or BRILLIANT.MOD
:root
   order TX TY TZ RX RY RZ
   axis XYZ
   position 0 0 0  
   orientation 0 0 0 
:bonedata
  begin
     id 1 
     name lhipjoint
     direction 0.570549 -0.739093 0.358072 
     length 2.41801 
     axis 0 0 0  XYZ
  end
  begin
     id 2 
     name lfemur
     direction 0.34202 -0.939693 0  
     length 7.44434  
     axis 0 0 20  XYZ
    dof rx ry rz
    limits (-160.0 20.0)
           (-70.0 70.0)
           (-60.0 70.0)
  end
  begin
     id 3 
     name ltibia
     direction 0.34202 -0.939693 0   
     length 7.60047   
     axis 0 0 20   XYZ
    dof rx
    limits (-10.0 170.0)
  end
  begin
     id 4 
     name lfoot
     direction 0.0909041 -0.249757 0.964032   
     length 2.03437   
     axis -90 7.62852e-016 20   XYZ
    dof rx rz
    limits (-45.0 90.0)
           (-70.0 20.0)
  end
  begin
     id 5 
     name ltoes
     direction 1.53547e-011 -4.2174e-011 1   
     length 1.02054   
     axis -90 7.62852e-016 20   XYZ
    dof rx
    limits (-90.0 20.0)
  end
  begin
     id 6 
     name rhipjoint
     direction -0.558096 -0.746754 0.361784   
     length 2.3932  
     axis 0 0 0  XYZ 
  end
  begin
     id 7 
     name rfemur
     direction -0.34202 -0.939693 0   
     length 7.3886   
     axis 0 0 -20   XYZ
    dof rx ry rz
    limits (-160.0 20.0)
           (-70.0 70.0)
           (-70.0 60.0)
  end
  begin
     id 8 
     name rtibia
     direction -0.34202 -0.939693 0   
     length 7.4839   
     axis 0 0 -20   XYZ
    dof rx
    limits (-10.0 170.0)
 end
 begin
     id 9 
     name rfoot
     direction -0.114619 -0.314914 0.942174   
     length 2.25127  
     axis -90 -7.62852e-016 -20   XYZ
    dof rx rz
    limits (-45.0 90.0)
           (-20.0 70.0)
  end
  begin
     id 10 
     name rtoes
     direction -1.53518e-011 -4.21881e-011 1   
     length 1.11821   
     axis -90 -7.62852e-016 -20   XYZ
    dof rx
    limits (-90.0 20.0)
  end
  begin
     id 11 
     name lowerback
     direction -0.00902269 0.996426 -0.0839821   
     length 2.25052   
     axis 0 0 0   XYZ
    dof rx ry rz
    limits (-20.0 45.0)
           (-30.0 30.0)
           (-30.0 30.0)
  end
  begin
     id 12 
     name upperback
     direction 0.0370973 0.999169 -0.0168941   
     length 2.24876   
     axis 0 0 0   XYZ
    dof rx ry rz
    limits (-20.0 45.0)
           (-30.0 30.0)
           (-30.0 30.0)
  end
  begin
     id 13 
     name thorax
     direction 0.0402726 0.998931 0.0227027   
     length 2.26408   
     axis 0 0 0   XYZ
    dof rx ry rz
    limits (-20.0 45.0)
           (-30.0 30.0)
           (-30.0 30.0)
  end
  begin
     id 14 
     name lowerneck
     direction -0.0733697 0.98508 0.155675   
     length 1.58204   
     axis 0 0 0   XYZ
    dof rx ry rz
    limits (-20.0 45.0)
           (-30.0 30.0)
           (-30.0 30.0)
  end
  begin
     id 15 
     name upperneck
     direction 0.0426554 0.993501 -0.105526   
     length 1.61222   
     axis 0 0 0   XYZ
    dof rx ry rz
    limits (-20.0 45.0)
           (-30.0 30.0)
           (-30.0 30.0)
  end
  begin
     id 16
     name head
     direction 0.020792 0.998384 -0.0528868  
     length 1.61527  
     axis 0 0 0   XYZ
    dof rx ry rz
    limits (-20.0 45.0)
           (-30.0 30.0)
           (-30.0 30.0)
  end
  begin
     id 17 
     name lclavicle
     direction 0.967109 0.155462 -0.201325  
     length 3.59357  
     axis 0 0 0   XYZ
    dof ry rz
    limits (-20.0 10.0)
           (0.0 20.0)
  end
  begin
     id 18 
     name lhumerus
     direction 1 -4.48968e-011 2.38195e-027   
     length 5.38154   
     axis 180 -30 -90   XYZ
    dof rx ry rz
    limits (-60.0 90.0)
           (-90.0 90.0)
           (-90.0 90.0)
  end
  begin
     id 19
     name lradius
     direction 1 -4.48961e-011 4.85371e-027   
     length 3.33312   
     axis 180 -30 -90   XYZ
    dof rx
    limits (-10.0 170.0)
  end
  begin
     id 20
     name lwrist
     direction 1 -4.48961e-011 4.76515e-027   
     length 1.66656   
     axis -3.27502e-015 90 90   XYZ
    dof ry
    limits (-180.0 0.0)
 end
  begin
     id 21 
     name lhand
     direction 1 -4.48951e-011 9.53074e-027   
     length 0.710789   
     axis -6.08098e-015 90 90   XYZ
    dof rx rz
    limits (-90.0 90.0)
           (-45.0 45.0)
  end
  begin
     id 22 
     name lfingers
     direction 1 -4.48953e-011 1.90613e-026   
     length 0.573057   
     axis -1.21619e-014 90 90   XYZ
    dof rx
    limits (0.0 90.0)
  end
  begin
     id 23
     name lthumb
     direction 0.707107 -6.34973e-011 0.707107   
     length 0.822798   
     axis -90 45 -9.86923e-015   XYZ
    dof rx rz
    limits (-45.0 45.0)
           (-45.0 45.0)
  end
  begin
     id 24 
     name rclavicle
     direction -0.9585 0.265289 -0.104398   
     length 3.42039  
     axis 0 0 0   XYZ 
    dof ry rz
    limits (-10.0 20.0)
           (-20.0 0.0)
  end
  begin
     id 25 
     name rhumerus
     direction -1 -4.48977e-011 2.21478e-027  
     length 5.16954   
     axis 180 30 90   XYZ
    dof rx ry rz
    limits (-90.0 60.0)
           (-90.0 90.0)
           (-90.0 90.0)
  end
  begin
     id 26 
     name rradius
     direction -1 -4.48967e-011 5.63677e-027   
     length 3.38287   
     axis 180 30 90   XYZ
    dof rx
    limits (-10.0 170.0)
  end
  begin
     id 27 
     name rwrist
     direction -1 -4.48967e-011 4.76501e-027   
     length 1.69144   
     axis -3.27502e-015 -90 -90   XYZ
    dof ry
    limits (-180.0 0.0)
  end
  begin
     id 28
     name rhand
     direction -1 -4.48902e-011 9.53292e-027   
     length 0.817967   
     axis -6.08098e-015 -90 -90   XYZ
    dof rx rz
    limits (-90.0 90.0)
           (-45.0 45.0)
  end
  begin
     id 29
     name rfingers
     direction -1 -4.49012e-011 1.90561e-026   
     length 0.659466   
     axis -1.21619e-014 -90 -90   XYZ
    dof rx
    limits (0.0 90.0)
  end
  begin
     id 30
     name rthumb
     direction -0.707107 -6.34944e-011 0.707107   
     length 0.946865   
     axis -90 -45 9.86923e-015   XYZ
    dof rx rz
    limits (-45.0 45.0)
           (-45.0 45.0)
  end
:hierarchy
  begin
    root lhipjoint rhipjoint lowerback
    lhipjoint lfemur
    lfemur ltibia
    ltibia lfoot
    lfoot ltoes
    rhipjoint rfemur
    rfemur rtibia
    rtibia rfoot
    rfoot rtoes
    lowerback upperback
    upperback thorax
    thorax lowerneck lclavicle rclavicle
    lowerneck upperneck
    upperneck head
    lclavicle lhumerus
    lhumerus lradius
    lradius lwrist
    lwrist lhand lthumb
    lhand lfingers
    rclavicle rhumerus
    rhumerus rradius
    rradius rwrist
    rwrist rhand rthumb
    rhand rfingers
  end

#!OML:ASF F:\twosubjects\two\wednesday\Session 1\Justin1.ASF
:FULLY-SPECIFIED
:DEGREES
165
root 3.97245 17.6506 11.3666 -1.41116 1.50741 5.24653
lowerback 2.70359 -1.37748 -5.5437
upperback 0.466435 -1.98184 1.31175
thorax -0.800789 -0.978753 4.52883
lowerneck -18.5539 -1.54291 -8.26911
upperneck 20.9999 -0.650098 3.84213
head 9.77448 -0.521926 2.63178
rclavicle 2.4612e-014 1.43125e-014
rhumerus -30.2349 -15.1304 -79.9853
rradius 28.389
rwrist -15.5422
rhand -16.5382 16.4538
rfingers 7.12502
rthumb 9.68091 -13.3037
lclavicle 2.4612e-014 1.43125e-014
lhumerus -17.0389 13.8372 83.7372
lradius 22.8576
lwrist -10.041
lhand 0.269724 39.0482
lfingers 7.12502
lthumb 25.8487 67.3116
rfemur -29.7269 -5.7321 15.5896
rtibia 44.0295
rfoot -13.3498 -8.37636
rtoes -2.22927
lfemur -1.66181 0.283272 -29.1504
ltibia 26.4066
lfoot -19.1379 -9.40764
ltoes 13.826
166
root 3.95617 17.67 11.526 -1.15734 1.69067 5.29428
lowerback 2.49772 -1.4349 -5.74494
upperback 0.610029 -2.04856 1.35705
thorax -0.520256 -1.02434 4.68185
lowerneck -18.6947 -1.60272 -8.49427
upperneck 20.707 -0.71848 4.11999
head 9.70265 -0.532537 2.75373
rclavicle 4.39811e-015 9.54166e-015
rhumerus -30.7334 -15.5167 -79.7706
rradius 27.9578
rwrist -15.231
rhand -16.5765 16.3463
rfingers 7.12502
rthumb 9.64399 -13.413
lclavicle 4.39811e-015 9.54166e-015
lhumerus -15.4523 13.8394 83.9997
lradius 23.2991
lwrist -10.149
lhand 0.155117 38.5576
lfingers 7.12502
lthumb 25.7389 66.837
rfemur -30.4309 -5.12001 15.5352
rtibia 41.5873
rfoot -12.9969 -8.95191
rtoes -0.147993
lfemur -1.64941 1.39667 -29.154
ltibia 25.6938
lfoot -18.9271 -9.48611
ltoes 5.98027
167
root 3.93002 17.6536 11.6673 -0.910989 1.63856 4.98168
lowerback 2.48168 -1.39714 -5.75042
upperback 0.634337 -1.99547 1.56373
thorax -0.484962 -0.999906 4.89814
lowerneck -18.5124 -1.59718 -8.62288
upperneck 20.3284 -0.680264 4.09613
head 9.53403 -0.521646 2.76454
rclavicle 1.41634e-015 0
rhumerus -31.4475 -16.2436 -79.3069
rradius 27.5734
rwrist -14.5832
rhand -16.2637 16.1505
rfingers 7.12502
rthumb 9.94577 -13.5945
lclavicle 1.41634e-015 0
lhumerus -13.9386 13.2625 84.2933
lradius 23.6244
lwrist -9.70282
lhand -0.13595 38.061
lfingers 7.12502
lthumb 25.4601 66.3804
rfemur -31.0917 -3.96762 15.8944
rtibia 39.0289
rfoot -12.7776 -9.68158
rtoes 1.61193
lfemur -0.760837 1.00746 -28.7303
ltibia 24.8926
lfoot -18.6907 -9.05239
ltoes 6.31853
168
root 3.89667 17.6477 11.7963 -0.404358 1.21557 3.94777
lowerback 2.37274 -1.33133 -5.13389
upperback 0.46846 -1.88599 1.99673
thorax -0.614534 -0.937883 4.99774
lowerneck -18.4933 -1.55569 -8.61315
upperneck 20.34 -0.594525 3.95867
head 9.52887 -0.497255 2.72612
rclavicle 3.57812e-015 7.15625e-015
rhumerus -32.2637 -16.3694 -79.0049
rradius 27.3535
rwrist -14.0399
rhand -16.2431 15.4184
rfingers 7.12502
rthumb 9.96561 -14.3257
lclavicle 3.57812e-015 7.15625e-015
lhumerus -12.5383 13.3595 84.417
lradius 23.8389
lwrist -9.67893
lhand 0.355977 38.4367
lfingers 7.12502
lthumb 25.9313 66.688
rfemur -31.8701 -2.18269 17.0471
rtibia 36.1326
rfoot -12.3639 -10.6608
rtoes 1.72537
lfemur -0.592279 0.85935 -27.5106
ltibia 24.0818
lfoot -18.2549 -8.69399
ltoes 7.4739
169
root 3.91975 17.6484 12.0417 -0.829645 2.07245 4.74464
lowerback 1.94412 -1.67941 -5.54821
upperback 0.864611 -2.33292 1.64102
thorax 0.0921114 -1.19299 4.84619
lowerneck -18.7439 -1.53948 -8.47137
upperneck 20.4271 -0.582322 3.92359
head 9.6036 -0.484509 2.69438
rclavicle 8.34896e-015 -7.95139e-015
rhumerus -32.9916 -16.2317 -78.9779
rradius 27.0348
rwrist -13.7079
rhand -16.489 15.1205
rfingers 7.12502
rthumb 9.72837 -14.6348
lclavicle 8.34896e-015 -7.95139e-015
lhumerus -11.1609 13.789 84.4485
lradius 24.0799
lwrist -9.49092
lhand 0.0656375 38.5621
lfingers 7.12502
lthumb 25.6532 66.8538
rfemur -30.873 -3.43973 16.1076
rtibia 33.3469
rfoot -12.3625 -9.90507
rtoes 0.522486
lfemur 1.51438 1.06774 -28.348
ltibia 23.209
lfoot -19.1668 -9.14962
ltoes 5.95628
170
root 3.93015 17.6386 12.2429 -0.946967 2.71765 5.2134
lowerback 2.04406 -1.86681 -5.72085
upperback 0.777908 -2.59379 1.43328
thorax -0.0227359 -1.3176 4.73541
lowerneck -18.0873 -1.54792 -8.80844
upperneck 20.0198 -0.642376 4.29144
head 9.34621 -0.493387 2.86192
rclavicle -1.80149e-014 1.66979e-014
rhumerus -34.3874 -16.4102 -78.5051
rradius 26.6559
rwrist -13.1857
rhand -16.3332 15.7893
rfingers 7.12502
rthumb 9.87868 -13.9589
lclavicle -1.80149e-014 1.66979e-014
lhumerus -10.3872 13.6729 84.5786
lradius 24.4675
lwrist -8.42619
lhand -1.17327 38.0601
lfingers 7.12502
lthumb 24.4661 66.5175
rfemur -30.3696 -4.23073 15.5648
rtibia 30.4788
rfoot -12.6222 -9.52218
rtoes -0.600582
lfemur 3.07483 0.979401 -28.8033
ltibia 22.5207
lfoot -19.6731 -9.38635
ltoes 5.52457
171
root 3.9173 17.6381 12.4127 -0.853623 3.09541 5.53102
lowerback 2.17402 -1.97908 -6.13633
upperback 0.589816 -2.76418 1.41052
thorax -0.249653 -1.39142 4.95776
lowerneck -17.3293 -1.51383 -9.10843
upperneck 19.6526 -0.638371 4.53738
head 9.08165 -0.48584 2.98829
rclavicle -2.9122e-014 1.51076e-014
rhumerus -35.8306 -16.7485 -77.8298
rradius 26.3806
rwrist -12.5262
rhand -15.8889 16.3314
rfingers 7.12502
rthumb 10.3073 -13.396
lclavicle -2.9122e-014 1.51076e-014
lhumerus -9.56987 13.4841 84.7124
lradius 24.9133
lwrist -8.02728
lhand -0.893642 38.2968
lfingers 7.12502
lthumb 24.7341 66.7178
rfemur -30.3748 -4.13009 15.1665
rtibia 27.9699
rfoot -13.0866 -9.72467
rtoes -1.4714
lfemur 4.27287 0.664237 -29.1109
ltibia 21.391
lfoot -19.0809 -9.37431
ltoes 4.61597
172
root 3.90937 17.6483 12.591 -0.594108 3.49383 5.91313
lowerback 1.90877 -2.17936 -6.67753
upperback 0.568752 -3.02541 1.4049
thorax -0.0600648 -1.52921 5.248
lowerneck -17.546 -1.44425 -8.85574
upperneck 19.942 -0.509066 4.17091
head 9.21124 -0.451019 2.84123
rclavicle -6.31141e-015 1.59028e-014
rhumerus -36.661 -16.6198 -77.5272
rradius 26.0138
rwrist -12.3948
rhand -15.7142 16.6672
rfingers 7.12502
rthumb 10.4759 -13.0518
lclavicle -6.31141e-015 1.59028e-014
lhumerus -8.39811 13.2135 84.7929
lradius 25.2595
lwrist -7.7313
lhand -0.211516 38.7601
lfingers 7.12502
lthumb 25.3878 67.0899
rfemur -30.4877 -4.21671 14.716
rtibia 25.5279
rfoot -12.9233 -9.37885
rtoes -0.900549
lfemur 5.16269 1.00713 -29.353
ltibia 20.4502
lfoot -18.5581 -9.8001
ltoes 1.65512
173
root 3.91032 17.6402 12.7786 -0.371587 3.98879 6.42928
lowerback 1.61812 -2.37705 -7.17099
upperback 0.730085 -3.27186 1.29467
thorax 0.32654 -1.67289 5.39265
lowerneck -18.0832 -1.36423 -8.91378
upperneck 20.0313 -0.36138 4.3084
head 9.32917 -0.368738 2.92229
rclavicle -2.36057e-014 1.35174e-014
rhumerus -36.9914 -16.4332 -77.4925
rradius 25.4881
rwrist -12.5929
rhand -15.6052 16.8667
rfingers 7.12502
rthumb 10.581 -12.847
lclavicle -2.36057e-014 1.35174e-014
lhumerus -6.89953 12.8267 84.9651
lradius 25.5002
lwrist -6.91373
lhand -0.303422 39.8955
lfingers 7.12502
lthumb 25.2997 68.2377
rfemur -30.4903 -4.68794 14.1107
rtibia 23.0361
rfoot -12.5748 -8.62189
rtoes -2.9314
lfemur 6.07549 1.26214 -29.6873
ltibia 19.6936
lfoot -18.5251 -10.5769
ltoes -1.0629
174
root 3.89387 17.6224 12.9575 -0.157494 4.11525 6.36103
lowerback 1.38969 -2.41162 -7.21524
upperback 0.873171 -3.29715 1.36239
thorax 0.61358 -1.70152 5.47267
lowerneck -22.3702 -2.53813 -6.75181
upperneck 22.4773 -1.5346 1.25971
head 11.0581 -1.12964 1.33155
rclavicle -2.72335e-014 -1.19271e-014
rhumerus -37.4836 -16.2886 -77.4248
rradius 25.1452
rwrist -12.7909
rhand -15.4841 16.6092
rfingers 7.12502
rthumb 10.6978 -13.0985
lclavicle -2.72335e-014 -1.19271e-014
lhumerus -5.43204 13.1772 85.1956
lradius 25.9131
lwrist -7.12974
lhand -0.256951 45.7077
lfingers 7.12502
lthumb 25.3442 74.0435
rfemur -30.7126 -3.89372 13.9654
rtibia 20.8912
rfoot -12.5181 -9.10996
rtoes -5.13321
lfemur 6.89122 0.671073 -29.5679
ltibia 18.6669
lfoot -18.3147 -10.6139
ltoes -0.989166
175
root 3.87446 17.6326 13.134 0.313054 4.04968 6.09208
lowerback 0.988939 -2.42978 -7.0924
upperback 0.695811 -3.29604 1.51571
thorax 0.656514 -1.69741 5.54921
lowerneck -17.737 -1.42668 -9.51591
upperneck 19.4699 -0.441488 4.89246
head 9.07855 -0.377648 3.20321
rclavicle 1.10822e-014 1.35174e-014
rhumerus -38.5166 -16.1856 -77.0983
rradius 24.7737
rwrist -12.5495
rhand -15.4052 15.9438
rfingers 7.12502
rthumb 10.7739 -13.7599
lclavicle 1.10822e-014 1.35174e-014
lhumerus -4.52744 13.7737 85.338
lradius 26.4361
lwrist -7.7914
lhand -2.79043 55.8143
lfingers 7.12502
lthumb 22.9151 84.4727
rfemur -31.2314 -2.19893 13.7616
rtibia 19.1116
rfoot -12.883 -10.5005
rtoes -1.81492
lfemur 7.22495 0.0112255 -29.3308
ltibia 17.4138
lfoot -17.4456 -10.3735
ltoes 0.297759
